:FULLY-SPECIFIED
:FORCE-ALL-JOINTS-BE-3DOF
:DEGREES
306
root -1.29468 15.4495 -36.7333 33.0347 43.8583 20.9646
lfemur -32.2069 31.0737 -17.7616
ltibia 75.6695 0 0
lfoot -26.4501 33.6894 0
ltoes 13.3229 0 0
rfemur -35.6468 -18.6019 13.5939
rtibia 54.9926 0 0
rfoot -12.8884 -17.0724 0
rtoes -24.9662 0 0
lowerback 14.4606 1.67411 3.37904
upperback -3.32104 3.16774 3.17306
thorax -11.6647 1.37854 0.828423
lowerneck -5.17209 9.18819 4.44076
upperneck 4.54827 12.6776 -9.67895
head 3.18338 6.08589 -2.99736
lclavicle -5.31559e-14 -2.37072e-14 0
lhumerus -20.1606 -27.7474 77.0288
lradius 124.498 0 0
lwrist 44.3034 0 0
lhand -17.9053 54.888 0
lfingers 7.12502 0 0
lthumb 8.36241 84.7347 0
rclavicle -5.31559e-14 -2.37072e-14 0
rhumerus -36.1901 43.9743 -94.3007
rradius 105.145 0 0
rwrist -43.9036 0 0
rhand 44.2846 -20.4229 0
rfingers 7.12502 0 0
rthumb 66.0577 -27.7833 0
307
root -1.18903 15.4353 -36.698 35.4092 45.0664 23.6466
lfemur -31.4672 30.5332 -17.8243
ltibia 75.1896 0 0
lfoot -26.5253 33.7882 0
ltoes 12.9016 0 0
rfemur -35.9435 -18.1745 13.2164
rtibia 54.4255 0 0
rfoot -11.914 -16.666 0
rtoes -24.0672 0 0
lowerback 14.5309 1.65418 3.10544
upperback -3.27067 3.08735 3.15253
thorax -11.6501 1.35508 0.979043
lowerneck -5.19348 8.93289 4.27324
upperneck 4.58313 12.3415 -9.5417
head 3.18998 5.91959 -2.94504
lclavicle -5.23446e-14 -2.36004e-14 0
lhumerus -20.7951 -28.0728 77.9885
lradius 124.581 0 0
lwrist 45.0575 0 0
lhand -17.9472 54.7233 0
lfingers 7.12502 0 0
lthumb 8.32194 84.5719 0
rclavicle -5.23446e-14 -2.36004e-14 0
rhumerus -34.4812 43.5954 -93.8148
rradius 104.461 0 0
rwrist -43.1611 0 0
rhand 43.5384 -20.6543 0
rfingers 7.12502 0 0
rthumb 65.3736 -28.3527 0
308
root -1.07734 15.4207 -36.6595 37.9179 46.3121 26.4878
lfemur -30.6685 29.9325 -17.8811
ltibia 74.6503 0 0
lfoot -26.6028 33.8623 0
ltoes 12.4279 0 0
rfemur -36.2515 -17.7106 12.8156
rtibia 53.8239 0 0
rfoot -10.8942 -16.2125 0
rtoes -23.0933 0 0
lowerback 14.5986 1.63372 2.80836
upperback -3.21732 3.00172 3.12844
thorax -11.6311 1.33042 1.14042
lowerneck -5.21596 8.64924 4.08555
upperneck 4.62382 11.9674 -9.38128
head 3.19765 5.7347 -2.88415
lclavicle -5.14174e-14 -2.34554e-14 0
lhumerus -21.481 -28.3934 79.0219
lradius 124.572 0 0
lwrist 45.7891 0 0
lhand -18.0006 54.5243 0
lfingers 7.12502 0 0
lthumb 8.27042 84.3749 0
rclavicle -5.14174e-14 -2.34554e-14 0
rhumerus -32.6528 43.1475 -93.281
rradius 103.655 0 0
rwrist -42.3204 0 0
rhand 42.6783 -20.9072 0
rfingers 7.12502 0 0
rthumb 64.5843 -28.9882 0
309
root -0.95943 15.4058 -36.6178 40.5643 47.5956 29.4926
lfemur -29.8089 29.2695 -17.9317
ltibia 74.0492 0 0
lfoot -26.6827 33.9107 0
ltoes 11.8998 0 0
rfemur -36.5713 -17.2092 12.391
rtibia 53.1873 0 0
rfoot -9.82844 -15.7102 0
rtoes -22.0422 0 0
lowerback 14.6634 1.61279 2.48702
upperback -3.16091 2.91075 3.10063
thorax -11.6075 1.30454 1.31285
lowerneck -5.23952 8.33618 3.87691
upperneck 4.67051 11.5539 -9.19671
head 3.20641 5.53052 -2.81431
lclavicle -5.03698e-14 -2.32703e-14 0
lhumerus -22.2202 -28.7086 80.1309
lradius 124.468 0 0
lwrist 46.4961 0 0
lhand -18.0658 54.2895 0
lfingers 7.12502 0 0
lthumb 8.20749 84.1423 0
rclavicle -5.03698e-14 -2.32703e-14 0
rhumerus -30.7011 42.6279 -92.6975
rradius 102.722 0 0
rwrist -41.3776 0 0
rhand 41.6997 -21.1823 0
rfingers 7.12502 0 0
rthumb 63.6855 -29.6921 0
310
root -0.835099 15.3905 -36.5728 43.3522 48.917 32.6653
lfemur -28.8866 28.5419 -17.9756
ltibia 73.384 0 0
lfoot -26.7648 33.9321 0
ltoes 11.3154 0 0
rfemur -36.9032 -16.6693 11.9421
rtibia 52.5152 0 0
rfoot -8.7161 -15.1573 0
rtoes -20.9116 0 0
lowerback 14.725 1.59142 2.14067
upperback -3.10138 2.81437 3.06893
thorax -11.579 1.27743 1.4966
lowerneck -5.26411 7.99266 3.64654
upperneck 4.72339 11.0995 -8.98702
head 3.2163 5.30636 -2.73519
lclavicle -4.91974e-14 -2.3043e-14 0
lhumerus -23.0145 -29.0175 81.3178
lradius 124.264 0 0
lwrist 47.1766 0 0
lhand -18.1432 54.0176 0
lfingers 7.12502 0 0
lthumb 8.13278 83.8729 0
rclavicle -4.91974e-14 -2.3043e-14 0
rhumerus -28.6227 42.0336 -92.0628
rradius 101.655 0 0
rwrist -40.329 0 0
rhand 40.5984 -21.4804 0
rfingers 7.12502 0 0
rthumb 62.6732 -30.4668 0
311
root -0.704161 15.3748 -36.5243 46.2853 50.2767 36.0102
lfemur -27.8995 27.7477 -18.0123
ltibia 72.6523 0 0
lfoot -26.8492 33.9253 0
ltoes 10.6725 0 0
rfemur -37.2476 -16.09 11.4684
rtibia 51.807 0 0
rfoot -7.55655 -14.5521 0
rtoes -19.6993 0 0
lowerback 14.7833 1.56965 1.76852
upperback -3.03866 2.71246 3.03317
thorax -11.5455 1.24911 1.69196
lowerneck -5.2897 7.61761 3.39368
upperneck 4.78264 10.6029 -8.75121
head 3.22734 5.06152 -2.6464
lclavicle -4.78955e-14 -2.27713e-14 0
lhumerus -23.8658 -29.3194 82.5845
lradius 123.957 0 0
lwrist 47.8286 0 0
lhand -18.2332 53.7072 0
lfingers 7.12502 0 0
lthumb 8.04592 83.5652 0
rclavicle -4.78955e-14 -2.27713e-14 0
rhumerus -26.4139 41.3616 -91.3751
rradius 100.451 0 0
rwrist -39.1706 0 0
rhand 39.3697 -21.8021 0
rfingers 7.12502 0 0
rthumb 61.5431 -31.3146 0
312
root -0.566428 15.3588 -36.4722 49.367 51.6748 39.5319
lfemur -26.8457 26.8846 -18.0416
ltibia 71.8519 0 0
lfoot -26.9357 33.8891 0
ltoes 9.96932 0 0
rfemur -37.6048 -15.4701 10.9693
rtibia 51.0624 0 0
rfoot -6.34918 -13.8928 0
rtoes -18.403 0 0
lowerback 14.838 1.5475 1.3698
upperback -2.97269 2.60494 2.99319
thorax -11.5067 1.21956 1.89921
lowerneck -5.31626 7.20998 3.11754
upperneck 4.84845 10.0625 -8.48832
head 3.23957 4.79528 -2.5476
lclavicle -4.64598e-14 -2.24533e-14 0
lhumerus -24.7757 -29.6138 83.9333
lradius 123.542 0 0
lwrist 48.4503 0 0
lhand -18.3361 53.3571 0
lfingers 7.12502 0 0
lthumb 7.94655 83.2178 0
rclavicle -4.64598e-14 -2.24533e-14 0
rhumerus -24.0712 40.6092 -90.6327
rradius 99.1032 0 0
rwrist -37.8987 0 0
rhand 38.0092 -22.1483 0
rfingers 7.12502 0 0
rthumb 60.2912 -32.2381 0
313
root -0.421711 15.3423 -36.4165 52.6012 53.1116 43.2346
lfemur -25.7233 25.9506 -18.063
ltibia 70.9803 0 0
lfoot -27.0243 33.8224 0
ltoes 9.20375 0 0
rfemur -37.9752 -14.8087 10.4443
rtibia 50.2807 0 0
rfoot -5.09337 -13.1777 0
rtoes -17.0203 0 0
lowerback 14.8888 1.52503 0.943747
upperback -2.90338 2.49171 2.94881
thorax -11.4625 1.18877 2.11863
lowerneck -5.34376 6.7687 2.81734
upperneck 4.921 9.47696 -8.19736
head 3.253 4.50697 -2.43842
lclavicle -4.48857e-14 -2.20869e-14 0
lhumerus -25.7462 -29.8997 85.3662
lradius 123.014 0 0
lwrist 49.0397 0 0
lhand -18.4524 52.9657 0
lfingers 7.12502 0 0
lthumb 7.8343 82.8295 0
rclavicle -4.48857e-14 -2.20869e-14 0
rhumerus -21.591 39.7734 -89.8339
rradius 97.6076 0 0
rwrist -36.5096 0 0
rhand 36.5124 -22.5196 0
rfingers 7.12502 0 0
rthumb 58.9133 -33.2394 0
